# xmcd CD database file
#
# Track frame offsets:
#	150
#	19734
#	54572
#	80813
#	107957
#	138768
#	161018
#	193636
#	212965
#	221125
#	238141
#	260896
#
# Disc length: 3672 seconds
#
# Revision: 0
# Processed by: cddbd v1.5.2PL0 Copyright (c) Steve Scherf et al.
# Submitted via: CDex 1.51
#
DISCID=bb0e560c
DTITLE=Quartet San Francisco - QSF Plays Brubeck
DYEAR=1900
DGENRE=Jazz
TTITLE0=Three To Get Ready
TTITLE1=Strange Meadowlark
TTITLE2=The Golden Horn
TTITLE3=The Duke
TTITLE4=Take Five
TTITLE5=Kathy's Waltz
TTITLE6=Blue Rondo A La Turk
TTITLE7=Bluette
TTITLE8=Unsquare Dance
TTITLE9=It's A Raggy Waltz
TTITLE10=Forty Days
TTITLE11=What Child Is This?
EXTD=
EXTT0=
EXTT1=
EXTT2=
EXTT3=
EXTT4=
EXTT5=
EXTT6=
EXTT7=
EXTT8=
EXTT9=
EXTT10=
EXTT11=
PLAYORDER=
